<?xml version="1.0"?>
<svg xmlns="http://www.w3.org/2000/svg" viewBox="0 0 64 64" width="512" height="512"><g id="Brickwork"><path d="M29.534,31.879l.172-.171a1,1,0,1,0-1.412-1.416l-.173.172a3.069,3.069,0,0,1-4.243,0l-.172-.171a1,1,0,1,0-1.412,1.416l.171.17a5,5,0,0,0,7.069,0Z"/><path d="M17,20h7a1,1,0,0,0,1-1V18h2v1a1,1,0,0,0,1,1h7a1,1,0,0,0,0-2H29V17a1,1,0,0,0-1-1H24a1,1,0,0,0-1,1v1H17a1,1,0,0,0,0,2Z"/><path d="M37,40H31V36.79a11.032,11.032,0,0,0,5.96-8.92A4,4,0,0,0,40,24a3,3,0,0,0,0-6A13.935,13.935,0,0,0,29.96,4.58,3,3,0,0,0,27,2H25a3,3,0,0,0-2.96,2.58A13.935,13.935,0,0,0,12,18a3,3,0,0,0,0,6,4,4,0,0,0,3.04,3.87A11.032,11.032,0,0,0,21,36.79V40H15a9.014,9.014,0,0,0-9,9V61a1,1,0,0,0,1,1H45a1,1,0,0,0,1-1V49A9.014,9.014,0,0,0,37,40ZM14,60H8V49a7,7,0,0,1,6-6.92ZM37,25.73V24h1A1.984,1.984,0,0,1,37,25.73Zm-22,0A1.984,1.984,0,0,1,14,24h1ZM12,22a1,1,0,0,1,0-2,1,1,0,0,0,2,0V18a11.942,11.942,0,0,1,5-9.75V11a1,1,0,0,0,2,0V7.09c.33-.15.66-.28,1-.4V13a1,1,0,0,0,2,0V5a1,1,0,0,1,1-1h2a1,1,0,0,1,1,1v8a1,1,0,0,0,2,0V6.69c.34.12.67.25,1,.4V11a1,1,0,0,0,2,0V8.25A11.942,11.942,0,0,1,38,18v2a1,1,0,0,0,2,0,1,1,0,0,1,0,2Zm5,5V24h4a1,1,0,0,0,0,2h1a1,1,0,0,0,0-2h8a1,1,0,0,0,0,2h1a1,1,0,0,0,0-2h4v3a9,9,0,0,1-18,0ZM29,37.57V41a3,3,0,0,1-6,0V37.57a10.68,10.68,0,0,0,6,0ZM20,42h1.1a5,5,0,0,0,9.8,0H32v8H20ZM32,60H20V56H32Zm4,0H34V55a1,1,0,0,0-1-1H19a1,1,0,0,0-1,1v5H16V42h2v9a1,1,0,0,0,1,1H33a1,1,0,0,0,1-1V42h2Zm8,0H38V42.08A7,7,0,0,1,44,49Z"/><path d="M59.87,37.91,54.29,23.57a2.455,2.455,0,0,0-4.58,0L44.13,37.91A3,3,0,0,0,46.92,42H51v4a3.009,3.009,0,0,0-3,3V59a3.009,3.009,0,0,0,3,3h2a3.009,3.009,0,0,0,3-3V49a3.009,3.009,0,0,0-3-3V42h4.08a3,3,0,0,0,2.79-4.09ZM54,49V59a1,1,0,0,1-1,1H51a1,1,0,0,1-1-1V49a1,1,0,0,1,1-1h2A1,1,0,0,1,54,49Zm3.9-9.44a.981.981,0,0,1-.82.44H53V35a1,1,0,0,0-2,0v5H46.92a1.006,1.006,0,0,1-.93-1.36l5.58-14.35a.464.464,0,0,1,.86,0l5.58,14.35A.974.974,0,0,1,57.9,39.56Z"/><path d="M61,2H37a1,1,0,0,0-1,1V6.01a1,1,0,0,0,2,0V4H48v6H40.87a1,1,0,0,0,0,2H42v3.8a1,1,0,0,0,2,0V12H54v6H44.96a1,1,0,0,0,0,2H45v6H42a1,1,0,0,0-1,1v7H37a1,1,0,0,0,0,2h5a1,1,0,0,0,1-1V28h3a1,1,0,0,0,1-1V20H60v6H58a1,1,0,0,0,0,2h2v7a1,1,0,0,0,2,0V3A1,1,0,0,0,61,2ZM60,18H56V12h4Zm0-8H50V4H60Z"/><path d="M20,3a1,1,0,0,1-1,1H14V7.95a1,1,0,1,1-2,0V4H4v6h7.08a1,1,0,0,1,0,2H10v4.14a1,1,0,0,1-2,0V12H4v6H8a1,1,0,0,1,0,2H4v6h6a1,1,0,0,1,0,2H4v6h8V31a1,1,0,0,1,2,0v3h1a1,1,0,0,1,0,2H3a1,1,0,0,1-1-1V3A1,1,0,0,1,3,2H19A1,1,0,0,1,20,3Z"/></g></svg>
